<?xml version="1.0" encoding="utf-8"?>
<!-- Generator: Adobe Illustrator 22.1.0, SVG Export Plug-In . SVG Version: 6.00 Build 0)  -->
<svg version="1.0" id="Livello_1" xmlns="http://www.w3.org/2000/svg" xmlns:xlink="http://www.w3.org/1999/xlink" x="0px" y="0px"
	 viewBox="0 0 76.5 76.5" style="enable-background:new 0 0 76.5 76.5;" xml:space="preserve">
<style type="text/css">
	.st0{fill:#66c28c;}
</style>
<path class="st0" d="M38.3,72.2c-18.7,0-34-15.2-34-34c0-18.7,15.2-34,34-34c18.7,0,33.9,15.2,33.9,34C72.2,57,57,72.2,38.3,72.2z
	 M38.3,8.3c-16.5,0-30,13.4-30,30s13.4,30,30,30c16.5,0,29.9-13.4,29.9-30S54.8,8.3,38.3,8.3z"/>
<g>
	<path class="st0" d="M35.9,28.6c-1.1-4.8-2.7-11.9-2.9-13c-0.6-3-1.2-3.7-2.6-3.1c-7.3,2.4-13.6,8.1-16.7,15.5
		c-1,2.4-1.1,3.6,0.6,5c0.9,0.8,5.7,2.9,12.5,4.4l1.6,0.2C28.6,33.3,31.7,29.7,35.9,28.6z"/>
	<path class="st0" d="M40.6,47.9c1.1,4.8,2.7,11.9,2.9,13c0.6,3,1.2,3.7,2.6,3.1c7.3-2.4,13.6-8.1,16.7-15.5c1-2.4,1.1-3.6-0.6-5
		c-0.9-0.8-5.7-2.9-12.5-4.4l-1.6-0.2C47.9,43.3,44.8,46.9,40.6,47.9z"/>
	<path class="st0" d="M64,30.4c-2.4-7.3-8.1-13.6-15.5-16.7c-2.4-1-3.6-1.1-5,0.6c-0.8,0.9-2.9,5.7-4.4,12.5l-0.2,1.6
		c4.4,0.3,8,3.4,9,7.5c4.8-1.1,11.9-2.7,13-2.9C63.9,32.4,64.6,31.8,64,30.4z"/>
	<path class="st0" d="M28.6,40.6c-4.8,1.1-11.9,2.7-13,2.9c-3,0.6-3.7,1.2-3.1,2.6c2.4,7.3,8.1,13.6,15.5,16.7c2.4,1,3.6,1.1,5-0.6
		c0.8-0.9,2.9-5.7,4.4-12.5l0.2-1.6C33.3,47.9,29.7,44.8,28.6,40.6z"/>
	<circle class="st0" cx="38.3" cy="38.3" r="7"/>
</g>
<g>
</g>
<g>
</g>
<g>
</g>
<g>
</g>
<g>
</g>
<g>
</g>
</svg>
